<svg xmlns="http://www.w3.org/2000/svg" width="333.025" height="265.471" viewBox="0 0 333.025 265.471">
  <g id="Assessment_logo" data-name="Assessment logo" transform="translate(-1008.981 -390.99)">
    <text id="Management_Platform" data-name="Management Platform" transform="translate(1186 569)" fill="#eb8022" font-size="30" font-family="Calibri-Light, Calibri" font-weight="300"><tspan x="-135" y="0">Management Platform</tspan></text>
    <text id="ASSESSMENT" transform="translate(1186 537)" fill="#fff" font-size="50" font-family="Calibri"><tspan x="-134" y="0">ASSESSMENT</tspan></text>
    <path id="Polygon_119" data-name="Polygon 119" d="M17.8,2.384a3,3,0,0,1,4.406,0L35.346,16.6a3,3,0,0,1-2.2,5.036H6.858a3,3,0,0,1-2.2-5.036Z" transform="translate(1257.576 390.99) rotate(45)" fill="#eb8022"/>
    <path id="Polygon_120" data-name="Polygon 120" d="M17.8,2.384a3,3,0,0,1,4.406,0L35.346,16.6a3,3,0,0,1-2.2,5.036H6.858a3,3,0,0,1-2.2-5.036Z" transform="translate(1032.492 613.355) rotate(-126)" fill="#dcdcdc"/>
    <path id="Polygon_121" data-name="Polygon 121" d="M17.8,2.384a3,3,0,0,1,4.406,0L35.346,16.6a3,3,0,0,1-2.2,5.036H6.858a3,3,0,0,1-2.2-5.036Z" transform="translate(1342.006 629.182) rotate(137)" fill="#eb8022" opacity="0.5"/>
  </g>
</svg>
