<svg xmlns="http://www.w3.org/2000/svg" xmlns:xlink="http://www.w3.org/1999/xlink" width="40" height="40" viewBox="0 0 40 40">
  <defs fill="#000000">
    <clipPath id="clip-path" fill="#000000">
      <rect id="Rectangle_15018" data-name="Rectangle 15018" width="22.845" height="23.883" fill="#ffffff"/>
    </clipPath>
  </defs>
  <g id="assignment" transform="translate(-121 -736.391)">
    <rect id="Rectangle_13131" data-name="Rectangle 13131" width="40" height="40" transform="translate(121 736.391)" fill="#ffffff" opacity="0"/>
    <g id="Group_26164" data-name="Group 26164" transform="translate(129.577 744.449)">
      <g id="Group_26163" data-name="Group 26163" clip-path="url(#clip-path)">
        <path id="Path_30463" data-name="Path 30463" d="M4.15.01c0,.311,0,.6,0,.882A2.093,2.093,0,0,0,6.386,3.119q5.029,0,10.057,0A2.1,2.1,0,0,0,18.7.853c0-.268,0-.537,0-.843h.8c.469,0,.938-.011,1.406.01a2.039,2.039,0,0,1,1.934,1.936c.005.1.007.2.007.3q0,9.692,0,19.385a2.178,2.178,0,0,1-.652,1.684,2,2,0,0,1-1.286.557c-.117.007-.234.008-.351.008q-9.138,0-18.276,0a2.236,2.236,0,0,1-1.555-.5A2.107,2.107,0,0,1,0,21.708Q.007,15.774,0,9.84q0-3.8,0-7.6A2.067,2.067,0,0,1,2.225.01c.63,0,1.259,0,1.925,0m8.291,9.328v3.126c-.123,0-.221,0-.318,0-.719-.037-1.438-.083-2.158-.113a14.838,14.838,0,0,1-3.788-.774,3.479,3.479,0,0,1-1.735-1.322c-.159-.212-.3-.438-.493-.723a5.651,5.651,0,0,0,.363,2.042A5.367,5.367,0,0,0,6.882,14.28a11.332,11.332,0,0,0,3.7,1.211c.549.088,1.1.153,1.69.233v3.062l6.209-5.175L12.441,9.339" transform="translate(0 -0.008)" fill="#ffffff"/>
        <path id="Path_30464" data-name="Path 30464" d="M102.293,0c1.712,0,3.424,0,5.135,0a.991.991,0,0,1,1.064,1.206.963.963,0,0,1-.873.855,3.141,3.141,0,0,1-.324.009H97.24c-.09,0-.18,0-.27-.005a.977.977,0,0,1-.926-1.032A.944.944,0,0,1,96.969.014C97.653-.009,98.338,0,99.023,0q1.635,0,3.27,0" transform="translate(-90.851 0)" fill="#ffffff"/>
      </g>
    </g>
  </g>
</svg>