<svg xmlns="http://www.w3.org/2000/svg" width="40" height="40" viewBox="0 0 40 40">
  <g id="Group_25847" data-name="Group 25847" transform="translate(-121 -736.391)">
    <rect id="Rectangle_13131" data-name="Rectangle 13131" width="40" height="40" transform="translate(121 736.391)" fill="#ffffff" opacity="0"/>
    <g id="Group_26240" data-name="Group 26240" transform="translate(125.237 744.795)">
      <g id="Group_26241" data-name="Group 26241" transform="translate(0 0)">
        <path id="Path_30502" data-name="Path 30502" d="M5.767,18.109c-2.352-1.759-3.57-1.758-5.7.012-.026-.27-.063-.476-.064-.681q0-7.145,0-14.29A2.906,2.906,0,1,1,5.8,3.127q.016,7.183,0,14.366c0,.173-.022.346-.04.616" transform="translate(-0.003 0)" fill="#ffffff"/>
        <path id="Path_30503" data-name="Path 30503" d="M102.936,94.658v-2.19c.286-.015.532-.038.778-.038,4.055,0,8.11.014,12.165-.013.65,0,.822.206.8.824-.057,1.637.2,1.409-1.415,1.414-3.8.01-7.6,0-11.4,0h-.924" transform="translate(-87.282 -78.362)" fill="#ffffff"/>
        <path id="Path_30504" data-name="Path 30504" d="M197.262,94.342V91.926c.52.13,1.236.117,1.363.384a2.112,2.112,0,0,1,.011,1.62c-.126.271-.841.269-1.374.412" transform="translate(-167.263 -77.946)" fill="#ffffff"/>
        <path id="Path_30505" data-name="Path 30505" d="M85.92,94.81l1.9-.919v1.784l-1.9-.865" transform="translate(-72.854 -79.612)" fill="#ffffff"/>
        <path id="Path_30506" data-name="Path 30506" d="M6.395,22.493c0,.349-.01.677-.01.955q0,7.639-.007,15.278a6.637,6.637,0,0,1-.158.983c-.223-.154-.291-.175-.3-.212-.064-.241-.121-.484-.172-.728A2.922,2.922,0,0,0,3.3,36.478a2.9,2.9,0,1,0-.327,5.766c3.141.031,6.283.01,9.425.01H26.007c1.046,0,1.047,0,1.047-1.08q0-2.2,0-4.409v-.808H26.045c-3.091,0-6.185-.085-9.272.033-1.678.064-2.943-.793-4.328-1.43-.1-.045-.131-.528-.083-.549,1.218-.519,2.268-1.459,3.7-1.453,3.091.014,6.182,0,9.273,0H27.05c0-.994,0-1.964,0-2.921h.026V22.493H11.261" transform="translate(0 -19.072)" fill="#ffffff"/>
      </g>
    </g>
  </g>
</svg>