<svg xmlns="http://www.w3.org/2000/svg" width="40" height="40" viewBox="0 0 40 40">
  <g id="dashboard" transform="translate(-48 -736)">
    <rect id="Rectangle_13130" data-name="Rectangle 13130" width="40" height="40" transform="translate(48 736)" fill="#ffffff" opacity="0"/>
    <path id="Icon_Bold_Type_Home" data-name="Icon=Bold, Type=Home" d="M9.858,22.819V19.428a1.573,1.573,0,0,1,1.579-1.567h3.187a1.585,1.585,0,0,1,1.116.459,1.561,1.561,0,0,1,.462,1.108v3.391a1.346,1.346,0,0,0,.395.961,1.365,1.365,0,0,0,.965.4h2.175a3.838,3.838,0,0,0,2.71-1.108,3.781,3.781,0,0,0,1.123-2.687v-9.66a2.742,2.742,0,0,0-.993-2.109L15.18,2.75a3.435,3.435,0,0,0-4.379.079L3.572,8.615A2.744,2.744,0,0,0,2.5,10.724v9.65a3.819,3.819,0,0,0,3.833,3.8H8.458a1.365,1.365,0,0,0,1.37-1.35Z" transform="translate(55.465 742.91)" fill="#ffffff"/>
  </g>
</svg>