<svg xmlns="http://www.w3.org/2000/svg" width="40" height="40" viewBox="0 0 40 40">
  <g id="delete" transform="translate(-978.001 -30)">
    <g id="logout" transform="translate(978.205 30.459)">
      <g id="spacer" transform="translate(-0.204 -0.459)" fill="#3f2768" stroke="rgba(0,0,0,0)" stroke-width="1" opacity="0">
        <rect width="40" height="40" stroke="none"/>
        <rect x="0.5" y="0.5" width="39" height="39" fill="none"/>
      </g>
    </g>
    <path id="Icon_fa-solid-eye" data-name="Icon fa-solid-eye" d="M14.663,2.25a14.326,14.326,0,0,0-9.806,4.1,20.171,20.171,0,0,0-4.73,6.674,1.619,1.619,0,0,0,0,1.252,20.171,20.171,0,0,0,4.73,6.674,14.327,14.327,0,0,0,9.806,4.1,14.326,14.326,0,0,0,9.806-4.1A20.324,20.324,0,0,0,29.2,14.28a1.619,1.619,0,0,0,0-1.252,20.273,20.273,0,0,0-4.735-6.674A14.326,14.326,0,0,0,14.663,2.25Zm-7.331,11.4a7.331,7.331,0,1,1,7.331,7.331A7.331,7.331,0,0,1,7.332,13.654ZM14.663,10.4A3.261,3.261,0,0,1,11.4,13.654a3.306,3.306,0,0,1-1.034-.168.434.434,0,0,0-.6.377,4.723,4.723,0,0,0,.163,1.054,4.889,4.889,0,1,0,4.933-6.15.432.432,0,0,0-.377.6,3.3,3.3,0,0,1,.168,1.033Z" transform="translate(983.334 36.346)" fill="#3f2768"/>
  </g>
</svg>
