<svg xmlns="http://www.w3.org/2000/svg" width="40" height="40" viewBox="0 0 40 40">
  <g id="delete" transform="translate(-978.001 -30)">
    <g id="logout" transform="translate(978.205 30.459)">
      <g id="spacer" transform="translate(-0.204 -0.459)" fill="#3f2768" stroke="rgba(0,0,0,0)" stroke-width="1" opacity="0">
        <rect width="40" height="40" stroke="none"/>
        <rect x="0.5" y="0.5" width="39" height="39" fill="none"/>
      </g>
    </g>
    <path id="Icon_material-delete-forever" data-name="Icon material-delete-forever" d="M9,28.5a3.009,3.009,0,0,0,3,3H24a3.009,3.009,0,0,0,3-3v-18H9Zm3.69-10.68L14.805,15.7,18,18.885l3.18-3.18L23.3,17.82,20.115,21l3.18,3.18L21.18,26.3,18,23.115,14.82,26.3,12.7,24.18,15.885,21ZM23.25,6l-1.5-1.5h-7.5L12.75,6H7.5V9h21V6Z" transform="translate(980.5 32.5)" fill="#3f2768"/>
  </g>
</svg>
