<svg xmlns="http://www.w3.org/2000/svg" width="40" height="40" viewBox="0 0 40 40">
  <g id="icon_calender" transform="translate(-0.492)">
    <g id="spacer" transform="translate(0.492)" fill="#ffffff" stroke="rgba(0,0,0,0)" stroke-width="1" opacity="0">
      <rect width="40" height="40" stroke="none" fill="#000000"/>
      <rect x="0.5" y="0.5" width="39" height="39" fill="none"/>
    </g>
    <path id="Icon_fa-solid-calendar-days" data-name="Icon fa-solid-calendar-days" d="M7.234,0A1.807,1.807,0,0,1,9.043,1.809V3.617h7.234V1.809a1.809,1.809,0,0,1,3.617,0V3.617h2.713A2.713,2.713,0,0,1,25.319,6.33V9.043H0V6.33A2.713,2.713,0,0,1,2.713,3.617H5.426V1.809A1.807,1.807,0,0,1,7.234,0ZM0,10.851H25.319V26.224a2.713,2.713,0,0,1-2.713,2.713H2.713A2.713,2.713,0,0,1,0,26.224Zm3.617,4.521v1.809a.907.907,0,0,0,.9.9H6.33a.907.907,0,0,0,.9-.9V15.372a.907.907,0,0,0-.9-.9H4.521A.907.907,0,0,0,3.617,15.372Zm7.234,0v1.809a.907.907,0,0,0,.9.9h1.809a.907.907,0,0,0,.9-.9V15.372a.907.907,0,0,0-.9-.9H11.755A.907.907,0,0,0,10.851,15.372Zm8.138-.9a.907.907,0,0,0-.9.9v1.809a.907.907,0,0,0,.9.9H20.8a.907.907,0,0,0,.9-.9V15.372a.907.907,0,0,0-.9-.9ZM3.617,22.607v1.809a.907.907,0,0,0,.9.9H6.33a.907.907,0,0,0,.9-.9V22.607a.907.907,0,0,0-.9-.9H4.521A.907.907,0,0,0,3.617,22.607Zm8.138-.9a.907.907,0,0,0-.9.9v1.809a.907.907,0,0,0,.9.9h1.809a.907.907,0,0,0,.9-.9V22.607a.907.907,0,0,0-.9-.9Zm6.33.9v1.809a.907.907,0,0,0,.9.9H20.8a.907.907,0,0,0,.9-.9V22.607a.907.907,0,0,0-.9-.9H18.99A.907.907,0,0,0,18.085,22.607Z" transform="translate(7.493 6)" fill="#ffffff"/>
  </g>
</svg>