<svg xmlns="http://www.w3.org/2000/svg" width="145.771" height="74.58" viewBox="0 0 145.771 74.58">
  <g id="l1" transform="translate(-76.855 -152.524)">
    <g id="Group_41" data-name="Group 41">
      <g id="Group_13" data-name="Group 13">
        <path id="Path_23" data-name="Path 23" d="M195.711,226.815a1.125,1.125,0,0,1-.751.289,1.143,1.143,0,0,1-.827-.355c-.807-.885-1.6-1.812-2.406-2.754-5.372-6.268-10.443-12.188-20.637-6.59-.113.054-.225.121-.335.166a4.592,4.592,0,0,1-.482.248,32.983,32.983,0,0,1-9.043,2.236.133.133,0,0,1-.067.012c-.392.034-.772.066-1.163.09h-.091c-.37.019-.641.028-.828.031-.424.018-.848.047-1.275.047a33.611,33.611,0,0,1-18.633-5.652,1.315,1.315,0,0,1-.246-1.579,1.021,1.021,0,0,1,1.5-.255A31.4,31.4,0,0,0,157.806,218c.269,0,.527,0,.784-.022h.012c.457,0,.917-.023,1.364-.068.257-.012.559-.033.895-.067A26.481,26.481,0,0,0,169.1,215.9c.312-.147.615-.293.917-.459,11.784-6.469,17.961.739,23.412,7.094.783.918,1.566,1.824,2.361,2.7A1.115,1.115,0,0,1,195.711,226.815Z" fill="#75094d"/>
        <path id="Path_24" data-name="Path 24" d="M159.966,217.907c-.272.017-.486.027-.667.033C159.521,217.928,159.747,217.928,159.966,217.907Z" fill="#75094d"/>
        <path id="Path_25" data-name="Path 25" d="M158.825,217.952c.006,0,.187,0,.474-.012-.234.012-.463.035-.7.035A1.193,1.193,0,0,1,158.825,217.952Z" fill="#75094d"/>
        <path id="Path_26" data-name="Path 26" d="M160,220.157c.391-.024.771-.056,1.163-.09C160.727,220.112,160.323,220.133,160,220.157Z" fill="#75094d"/>
      </g>
      <text id="net" transform="translate(161.626 204.147)" fill="#262626" font-size="36.009" font-family="Comfortaa-Regular, Comfortaa"><tspan x="0" y="0">net</tspan></text>
      <g id="Group_14" data-name="Group 14">
        <path id="Path_27" data-name="Path 27" d="M116.094,217.245a1.666,1.666,0,0,1-1.187-.491L76.855,178.7V156.044a1.678,1.678,0,1,1,3.356,0v21.267l37.069,37.068a1.678,1.678,0,0,1-1.186,2.866Z" fill="#75094d"/>
      </g>
      <g id="Group_15" data-name="Group 15">
        <path id="Path_28" data-name="Path 28" d="M130.083,217.245a1.671,1.671,0,0,1-1.188-.491L87.206,175.063V156.044a1.679,1.679,0,1,1,3.358,0v17.63l40.706,40.705a1.678,1.678,0,0,1-1.187,2.866Z" fill="#75094d"/>
      </g>
      <g id="Group_18" data-name="Group 18">
        <g id="Group_16" data-name="Group 16">
          <path id="Path_29" data-name="Path 29" d="M78.545,217.245a1.679,1.679,0,0,1-1.679-1.678V192.908l38.053-38.052a1.678,1.678,0,0,1,2.373,2.373L80.224,194.3v21.266A1.679,1.679,0,0,1,78.545,217.245Z" fill="#dc7034"/>
        </g>
        <g id="Group_17" data-name="Group 17">
          <path id="Path_30" data-name="Path 30" d="M88.9,217.245a1.679,1.679,0,0,1-1.679-1.678V196.545l41.689-41.689a1.678,1.678,0,0,1,2.373,2.373L90.576,197.937v17.63A1.68,1.68,0,0,1,88.9,217.245Z" fill="#dc7034"/>
        </g>
      </g>
      <g id="Group_19" data-name="Group 19">
        <path id="Path_31" data-name="Path 31" d="M84.424,189.407a1.677,1.677,0,0,1-1.188-2.865l3.847-3.848a1.679,1.679,0,1,1,2.374,2.376l-3.848,3.847A1.68,1.68,0,0,1,84.424,189.407Z" fill="#dc7034"/>
      </g>
      <g id="Group_20" data-name="Group 20">
        <path id="Path_32" data-name="Path 32" d="M95.429,196.6a1.672,1.672,0,0,1-1.19-.494l-4.229-4.248a1.677,1.677,0,1,1,2.377-2.367l4.23,4.246a1.679,1.679,0,0,1-1.188,2.863Z" fill="#75094d"/>
      </g>
      <g id="Group_21" data-name="Group 21">
        <path id="Path_33" data-name="Path 33" d="M95.317,182.514a1.675,1.675,0,0,1-1.189-.492l-4.23-4.246a1.679,1.679,0,1,1,2.378-2.371l4.229,4.246a1.678,1.678,0,0,1-1.188,2.863Z" fill="#75094d"/>
      </g>
      <g id="Group_24" data-name="Group 24">
        <g id="Group_22" data-name="Group 22">
          <path id="Path_34" data-name="Path 34" d="M135.255,211.6q.745-.831,1.5-1.658a31.551,31.551,0,0,1-.92-46.268,1.148,1.148,0,0,0,.065-1.544,1.23,1.23,0,0,0-1.686,0,33.782,33.782,0,0,0,1.04,49.47Z" fill="#75094d"/>
        </g>
        <g id="Group_23" data-name="Group 23">
          <path id="Path_35" data-name="Path 35" d="M157.8,152.524a33.613,33.613,0,0,0-19.785,6.439c.387.635.794,1.254,1.219,1.864a31.564,31.564,0,0,1,50.089,23.281c.691-.635,1.374-1.279,2.062-1.912A33.9,33.9,0,0,0,157.8,152.524Z" fill="#75094d"/>
        </g>
      </g>
      <g id="Group_26" data-name="Group 26">
        <g id="Group_25" data-name="Group 25">
          <path id="Path_36" data-name="Path 36" d="M157.8,158.133a28.238,28.238,0,0,0-2.126,56.4c0-.02,1.362.022,1.462-.992.083-.829-.45-1.153-1.423-1.248a26,26,0,1,1,28.06-27.039q1.128.573,2.268,1.133v-.006A28.277,28.277,0,0,0,157.8,158.133Z" fill="#dc7034"/>
        </g>
      </g>
      <g id="Group_29" data-name="Group 29">
        <g id="Group_27" data-name="Group 27">
          <path id="Path_37" data-name="Path 37" d="M169.846,166.633a.934.934,0,0,0-1.3.6,1.285,1.285,0,0,0,.583,1.6,20.946,20.946,0,0,1,9.165,13.416q1.224.713,2.475,1.391A23.183,23.183,0,0,0,169.846,166.633Z" fill="#75094d"/>
        </g>
        <g id="Group_28" data-name="Group 28">
          <path id="Path_38" data-name="Path 38" d="M137.271,182.552a20.835,20.835,0,0,1,28.386-15.524q.348-1.075.7-2.143a23.094,23.094,0,0,0-31.32,17.489.99.99,0,0,0,.849,1.07C136.355,183.53,136.932,183.53,137.271,182.552Z" fill="#75094d"/>
        </g>
      </g>
      <g id="Group_30" data-name="Group 30">
        <path id="Path_39" data-name="Path 39" d="M142.686,158.838a2.436,2.436,0,1,1-2.435-2.433A2.435,2.435,0,0,1,142.686,158.838Z" fill="#75094d"/>
      </g>
      <g id="Group_31" data-name="Group 31">
        <path id="Path_40" data-name="Path 40" d="M157.8,213.3a2.435,2.435,0,1,1-2.436-2.435A2.435,2.435,0,0,1,157.8,213.3Z" fill="#dc7034"/>
      </g>
      <g id="Group_32" data-name="Group 32">
        <path id="Path_41" data-name="Path 41" d="M137.19,209.517a2.436,2.436,0,1,1-2.435-2.436A2.434,2.434,0,0,1,137.19,209.517Z" fill="#75094d"/>
      </g>
      <g id="Group_33" data-name="Group 33">
        <path id="Path_42" data-name="Path 42" d="M167.138,165.745a2.435,2.435,0,1,1-2.435-2.438A2.435,2.435,0,0,1,167.138,165.745Z" fill="#75094d"/>
      </g>
      <g id="Group_34" data-name="Group 34">
        <path id="Path_43" data-name="Path 43" d="M162.442,174a3.623,3.623,0,1,1-3.623-3.623A3.623,3.623,0,0,1,162.442,174Z" fill="#dc7034"/>
      </g>
      <g id="Group_35" data-name="Group 35">
        <path id="Path_44" data-name="Path 44" d="M199.5,223.614a1.116,1.116,0,0,1-.869-.414c-8.527-10.515-16.343-18.767-25.653-13.112a39.5,39.5,0,0,1-11.508,4.213,1.118,1.118,0,1,1-.416-2.2,38.132,38.132,0,0,0,10.762-3.928c11.74-7.132,21.457,4.862,28.553,13.616a1.117,1.117,0,0,1-.869,1.822Z" fill="#75094d"/>
      </g>
      <g id="Group_37" data-name="Group 37">
        <g id="Group_36" data-name="Group 36">
          <path id="Path_45" data-name="Path 45" d="M155.592,209.067c-3.919,0-9.568-2.328-13.446-5.818a22.383,22.383,0,0,1-7.319-15.791l2.239.025a20.473,20.473,0,0,0,6.578,14.1c4.76,4.286,11.443,5.94,13.629,4.971a.749.749,0,0,0,.551-.76v-8.3h2.236v8.3a2.955,2.955,0,0,1-1.876,2.806A6.458,6.458,0,0,1,155.592,209.067Z" fill="#75094d"/>
        </g>
      </g>
      <g id="Group_38" data-name="Group 38">
        <path id="Path_46" data-name="Path 46" d="M138.091,187.685a2.435,2.435,0,1,1-2.435-2.438A2.433,2.433,0,0,1,138.091,187.685Z" fill="#75094d"/>
      </g>
      <g id="Group_40" data-name="Group 40">
        <g id="Group_39" data-name="Group 39">
          <path id="Path_47" data-name="Path 47" d="M158.819,204.506c-1.352,0-2.448-.752-2.448-1.679V181.885c0-.927,1.1-1.677,2.448-1.677s2.448.75,2.448,1.677v20.942C161.267,203.754,160.171,204.506,158.819,204.506Z" fill="#dc7034"/>
        </g>
      </g>
    </g>
  </g>
</svg>
