<svg xmlns="http://www.w3.org/2000/svg" width="40" height="40" viewBox="0 0 40 40">
  <g id="logout" transform="translate(0.204 0.459)">
    <g id="spacer" transform="translate(-0.204 -0.459)" fill="#ffffff" stroke="rgba(0,0,0,0)" stroke-width="1" opacity="0">
      <rect width="40" height="40" stroke="none" fill="#000000"/>
      <rect x="0.5" y="0.5" width="39" height="39" fill="none"/>
    </g>
    <g id="sign-out-option" transform="translate(6.156 9.312)">
      <g id="Group_25044" data-name="Group 25044" transform="translate(0 0)">
        <path id="Path_18419" data-name="Path 18419" d="M10.653,59.859a.394.394,0,0,1-.034-.214c.011-.058-.028-.105-.116-.142s-.133-.066-.133-.087-.064-.037-.191-.047l-.191-.016H4.794a2.631,2.631,0,0,1-1.881-.744,2.381,2.381,0,0,1-.782-1.789V45.674a2.38,2.38,0,0,1,.782-1.789,2.632,2.632,0,0,1,1.881-.744H10.12a.463.463,0,0,0,.508-.412,2.54,2.54,0,0,0,.05-.372,3.746,3.746,0,0,0-.008-.42q-.017-.253-.017-.317a.476.476,0,0,0-.158-.356.526.526,0,0,0-.374-.15H4.794a4.74,4.74,0,0,0-3.387,1.338A4.287,4.287,0,0,0,0,45.674V56.819A4.286,4.286,0,0,0,1.406,60.04a4.738,4.738,0,0,0,3.387,1.338h5.327a.463.463,0,0,0,.508-.412,2.545,2.545,0,0,0,.05-.372,3.743,3.743,0,0,0-.008-.419Q10.653,59.922,10.653,59.859Z" transform="translate(0 -41.115)" fill="#ffffff"/>
        <path id="Path_18420" data-name="Path 18420" d="M129.025,59.135l-9.055-8.589a1.085,1.085,0,0,0-1.5,0,.948.948,0,0,0-.316.711V55.8H110.7a1.053,1.053,0,0,0-.749.3.947.947,0,0,0-.316.711v6.063a.947.947,0,0,0,.316.71,1.054,1.054,0,0,0,.749.3h7.457v4.547a.947.947,0,0,0,.316.71,1.085,1.085,0,0,0,1.5,0l9.055-8.589a.956.956,0,0,0,0-1.421Z" transform="translate(-102.324 -49.714)" fill="#ffffff"/>
      </g>
    </g>
  </g>
</svg>