<svg xmlns="http://www.w3.org/2000/svg" width="40" height="40" viewBox="0 0 40 40">
  <g id="question_bank" transform="translate(-121 -735.695)">
    <rect id="Rectangle_13131" data-name="Rectangle 13131" width="40" height="40" transform="translate(121 735.695)" fill="#ffffff" opacity="0"/>
    <g id="Group_25848" data-name="Group 25848" transform="translate(-844.554 2083.636)">
      <path id="Path_29977" data-name="Path 29977" d="M997.184-1319.527c.1.549.211,1.129.319,1.71a1.289,1.289,0,0,1-.932,1.64,1.448,1.448,0,0,1-1.03-.18l-4.97-2.543a2.091,2.091,0,0,1-.229-.121,5.055,5.055,0,0,0-2.986-.729c-3.563,0-7.127-.066-10.69-.113a4.967,4.967,0,0,1-4.849-3.436,4.476,4.476,0,0,1-.238-1.432c-.019-3.466-.049-6.932.006-10.4a4.842,4.842,0,0,1,3.767-4.6,6.851,6.851,0,0,1,1.6-.187c6.012-.013,12.024.024,18.035-.022a5.242,5.242,0,0,1,5.31,5.238c.016,2.556,0,5.113,0,7.669,0,1.137.047,2.277-.012,3.412a4.433,4.433,0,0,1-2.192,3.758A5.182,5.182,0,0,1,997.184-1319.527Zm-13.713-13.852a10.694,10.694,0,0,1,1.752-.368c1.069-.044,1.536.752,1.035,1.692a9.325,9.325,0,0,1-.6.882c-.276.4-.584.781-.82,1.2a3.291,3.291,0,0,0-.34,2.15h2.247a3.457,3.457,0,0,1,1.091-2.7,6,6,0,0,0,.88-1.2,2.629,2.629,0,0,0-1.481-3.894,5.036,5.036,0,0,0-2.439-.128,5.376,5.376,0,0,0-1.864.63Zm2.085,9.495a1.489,1.489,0,0,0,1.539-1.563,1.5,1.5,0,0,0-1.56-1.549,1.483,1.483,0,0,0-1.5,1.57A1.466,1.466,0,0,0,985.556-1323.884Z" transform="translate(0 0)" fill="#ffffff" fill-rule="evenodd"/>
    </g>
  </g>
</svg>