<svg xmlns="http://www.w3.org/2000/svg" width="40" height="40" viewBox="0 0 40 40">
  <g id="search" transform="translate(-121 -757.391)">
    <rect id="Rectangle_13131" data-name="Rectangle 13131" width="40" height="40" transform="translate(121 757.391)" fill="#3f2768" opacity="0"/>
    <g id="magnifier" transform="translate(129.253 765.645)">
      <g id="Group_62" data-name="Group 62" transform="translate(0.001)">
        <path id="Path_58" data-name="Path 58" d="M304.849,301.7l-5.458-5.459a10.508,10.508,0,0,1-3.154,3.154l5.459,5.459a2.23,2.23,0,0,0,3.154-3.154Z" transform="translate(-281.71 -281.717)" fill="#3f2768"/>
        <path id="Path_59" data-name="Path 59" d="M17.845,8.922a8.922,8.922,0,1,0-8.922,8.922A8.923,8.923,0,0,0,17.845,8.922ZM8.923,15.613a6.691,6.691,0,1,1,6.692-6.691A6.7,6.7,0,0,1,8.923,15.613Z" transform="translate(-0.001)" fill="#3f2768"/>
        <path id="Path_60" data-name="Path 60" d="M75.817,81.021H77.3A3.722,3.722,0,0,1,81.021,77.3V75.816A5.211,5.211,0,0,0,75.817,81.021Z" transform="translate(-72.099 -72.098)" fill="#3f2768"/>
      </g>
    </g>
  </g>
</svg>
