<svg xmlns="http://www.w3.org/2000/svg" width="40" height="40" viewBox="0 0 40 40">
  <g id="users" transform="translate(-121 -736)">
    <rect id="Rectangle_13131" data-name="Rectangle 13131" width="40" height="40" transform="translate(121 736)" fill="#ffffff" opacity="0"/>
    <path id="Icon_Bold_Type_3_User" data-name="Icon=Bold, Type=3 User" d="M19.743,9.234A5.2,5.2,0,1,1,14.538,4,5.2,5.2,0,0,1,19.743,9.234Zm-5.2,14.55c-4.243,0-7.865-.673-7.865-3.363s3.6-3.389,7.865-3.389c4.243,0,7.865.673,7.865,3.364S18.8,23.784,14.538,23.784ZM21.968,9.328a7.128,7.128,0,0,1-1.217,4.008.2.2,0,0,0,.132.3,4.2,4.2,0,0,0,.6.058,4.344,4.344,0,0,0,4.359-3.242A4.421,4.421,0,0,0,21.6,4.873a4.336,4.336,0,0,0-.876.09.16.16,0,0,0-.1.061.128.128,0,0,0,.02.136A7.18,7.18,0,0,1,21.968,9.328Zm3.365,6.434a3.409,3.409,0,0,1,2.635,1.612,2.377,2.377,0,0,1,0,2.065c-.569,1.235-2.4,1.631-3.117,1.734a.224.224,0,0,1-.25-.254c.364-3.422-2.533-5.045-3.283-5.418a.056.056,0,0,1-.035-.058.047.047,0,0,1,.04-.032A19.233,19.233,0,0,1,25.332,15.762ZM7.723,13.7a4.061,4.061,0,0,0,.6-.058.2.2,0,0,0,.132-.3,7.223,7.223,0,0,1,.1-8.176.13.13,0,0,0,.02-.136.168.168,0,0,0-.1-.061,4.354,4.354,0,0,0-.877-.09,4.42,4.42,0,0,0-4.234,5.581A4.344,4.344,0,0,0,7.723,13.7Zm.2,1.747a.057.057,0,0,1-.034.059c-.751.373-3.648,2-3.284,5.417a.224.224,0,0,1-.249.255c-.713-.1-2.548-.5-3.117-1.734a2.37,2.37,0,0,1,0-2.065,3.411,3.411,0,0,1,2.634-1.614,19.341,19.341,0,0,1,4.011-.35A.045.045,0,0,1,7.921,15.443Z" transform="translate(126.398 742.108)" fill="#ffffff" fill-rule="evenodd"/>
  </g>
</svg>